<svg viewBox="0 0 20 17" fill="none" xmlns="http://www.w3.org/2000/svg">
<path d="M1.875 3.75C2.37228 3.75 2.84919 3.55246 3.20083 3.20083C3.55246 2.84919 3.75 2.37228 3.75 1.875C3.75 1.37772 3.55246 0.900806 3.20083 0.549175C2.84919 0.197544 2.37228 0 1.875 0C1.37772 0 0.900805 0.197544 0.549175 0.549175C0.197544 0.900806 0 1.37772 0 1.875C0 2.37228 0.197544 2.84919 0.549175 3.20083C0.900805 3.55246 1.37772 3.75 1.875 3.75ZM6.875 0.625C6.18359 0.625 5.625 1.18359 5.625 1.875C5.625 2.56641 6.18359 3.125 6.875 3.125H18.125C18.8164 3.125 19.375 2.56641 19.375 1.875C19.375 1.18359 18.8164 0.625 18.125 0.625H6.875ZM6.875 6.875C6.18359 6.875 5.625 7.43359 5.625 8.125C5.625 8.81641 6.18359 9.375 6.875 9.375H18.125C18.8164 9.375 19.375 8.81641 19.375 8.125C19.375 7.43359 18.8164 6.875 18.125 6.875H6.875ZM6.875 13.125C6.18359 13.125 5.625 13.6836 5.625 14.375C5.625 15.0664 6.18359 15.625 6.875 15.625H18.125C18.8164 15.625 19.375 15.0664 19.375 14.375C19.375 13.6836 18.8164 13.125 18.125 13.125H6.875ZM1.875 16.25C2.37228 16.25 2.84919 16.0525 3.20083 15.7008C3.55246 15.3492 3.75 14.8723 3.75 14.375C3.75 13.8777 3.55246 13.4008 3.20083 13.0492C2.84919 12.6975 2.37228 12.5 1.875 12.5C1.37772 12.5 0.900805 12.6975 0.549175 13.0492C0.197544 13.4008 0 13.8777 0 14.375C0 14.8723 0.197544 15.3492 0.549175 15.7008C0.900805 16.0525 1.37772 16.25 1.875 16.25ZM3.75 8.125C3.75 7.87877 3.7015 7.63495 3.60727 7.40747C3.51305 7.17998 3.37493 6.97328 3.20083 6.79917C3.02672 6.62506 2.82002 6.48695 2.59253 6.39273C2.36505 6.2985 2.12123 6.25 1.875 6.25C1.62877 6.25 1.38495 6.2985 1.15747 6.39273C0.929983 6.48695 0.723285 6.62506 0.549175 6.79917C0.375065 6.97328 0.236953 7.17998 0.142726 7.40747C0.0484983 7.63495 -3.66909e-09 7.87877 0 8.125C-3.66909e-09 8.37123 0.0484983 8.61505 0.142726 8.84253C0.236953 9.07002 0.375065 9.27672 0.549175 9.45083C0.723285 9.62494 0.929983 9.76305 1.15747 9.85727C1.38495 9.9515 1.62877 10 1.875 10C2.12123 10 2.36505 9.9515 2.59253 9.85727C2.82002 9.76305 3.02672 9.62494 3.20083 9.45083C3.37493 9.27672 3.51305 9.07002 3.60727 8.84253C3.7015 8.61505 3.75 8.37123 3.75 8.125Z" fill="currentColor"/>
</svg>
